<svg width="210" height="24" viewBox="0 0 210 24" fill="none"
    xmlns="http://www.w3.org/2000/svg">
    <path d="M48.6147 8.27755V0.0489807H51.3085V23.4122C50.6718 23.4122 50.084 23.4122 49.4963 23.4122C49.3983 23.4122 49.2024 23.1673 49.2024 22.9714C49.1044 22.3347 49.0065 21.7469 48.9085 20.9633C46.7044 23.1673 44.0595 24 41.0718 23.6571C38.8187 23.4612 36.7126 22.3347 35.2922 20.5714C32.4514 17.1429 32.6963 11.6082 35.782 8.37551C38.7208 5.2898 44.6473 4.65307 48.6147 8.27755ZM42.3942 8.42449C38.7698 8.42449 36.0269 11.1673 36.0759 14.7918C36.0759 18.4653 38.8187 21.1102 42.3942 21.1592C45.9698 21.1592 48.7616 18.4163 48.7616 14.7918C48.7126 11.1184 46.0187 8.42449 42.3942 8.42449Z" fill="#0F0F0F"/>
    <path d="M210.002 23.4123C209.366 23.4123 208.827 23.4123 208.239 23.4123C208.092 23.4123 207.896 23.1674 207.847 23.0204C207.749 22.3837 207.651 21.7959 207.553 21.0122C205.153 23.3633 202.313 24.1469 199.129 23.6082C197.072 23.2653 195.211 22.1878 193.937 20.5714C191.145 17.0939 191.39 11.5592 194.476 8.37552C197.464 5.2898 203.341 4.70205 207.26 8.27756V0.0979614H210.002V23.4123ZM201.137 8.42449C197.513 8.42449 194.819 11.1674 194.819 14.8408C194.819 18.5143 197.562 21.1592 201.137 21.1592C204.762 21.1592 207.504 18.4163 207.504 14.7918C207.504 11.1184 204.811 8.42449 201.137 8.42449Z" fill="#0F0F0F"/>
    <path d="M116.109 0H118.753V8.32653C121.251 6.07347 124.043 5.38776 127.178 6.02449C129.186 6.36735 130.998 7.49388 132.174 9.11021C134.868 12.6367 134.525 18.0735 131.488 21.2082C128.696 24.1469 122.525 25.1265 118.509 21.0612C118.362 21.8449 118.264 22.6286 118.117 23.3633H116.06L116.109 0ZM131.292 14.8408C131.341 11.1673 128.696 8.47347 125.072 8.42449C121.398 8.37551 118.655 11.0694 118.655 14.6939C118.655 18.3184 121.3 21.1102 124.925 21.1592C128.549 21.2082 131.243 18.5143 131.292 14.8408Z" fill="#0F0F0F"/>
    <path d="M71.1453 8.71837C71.2432 7.78776 71.3902 7.00408 71.4881 6.17143H73.5453V23.3633H71.3902C71.2922 22.5306 71.1942 21.7469 71.0963 20.8653C68.8922 23.1673 66.2473 24.049 63.2106 23.7551C60.9085 23.5592 58.8024 22.4327 57.382 20.6204C54.4922 17.0939 54.7861 11.5102 58.0187 8.32653C61.2024 5.14286 67.4718 4.70204 71.1453 8.71837ZM64.533 8.42449C60.9085 8.42449 58.2147 11.1184 58.1657 14.7429C58.0677 18.2204 60.8106 21.0612 64.2391 21.1592C64.3371 21.1592 64.4351 21.1592 64.533 21.1592C68.1575 21.1592 70.8514 18.4163 70.8024 14.7429C70.8514 11.1184 68.1575 8.42449 64.533 8.42449Z" fill="#0F0F0F"/>
    <path d="M173.562 8.71837C173.66 7.78775 173.806 7.00408 173.904 6.17143H176.011V23.3633H173.806C173.709 22.5796 173.611 21.7469 173.513 20.9143C169.496 25.2245 162.884 24.1959 159.994 20.8653C157.006 17.4367 157.055 11.8531 160.239 8.47347C163.276 5.24081 169.839 4.5551 173.562 8.71837ZM166.949 8.42449C163.325 8.42449 160.631 11.1184 160.582 14.7429C160.484 18.2204 163.227 21.0612 166.655 21.1592C166.753 21.1592 166.851 21.1592 166.949 21.1592C170.574 21.1592 173.219 18.4163 173.219 14.7429C173.268 11.1184 170.574 8.42449 166.949 8.42449Z" fill="#0F0F0F"/>
    <path d="M98.28 23.3633H95.6351V0.0489807H98.3289V8.27755C99.1126 7.6898 99.7983 7.10204 100.631 6.61224C103.325 5.14286 106.998 5.58367 108.958 7.54286C110.182 8.76735 110.868 10.4327 110.868 12.1469C110.917 15.8694 110.868 19.5429 110.868 23.2653H108.174V22.5796C108.174 19.6898 108.174 16.751 108.174 13.8612C108.174 13.2245 108.125 12.5878 108.027 11.951C107.439 8.71837 104.304 7.15102 101.317 8.66939C99.3085 9.69796 98.3289 11.5102 98.3289 13.6653C98.28 16.6041 98.3289 19.5429 98.3289 22.5306L98.28 23.3633Z" fill="#0F0F0F"/>
    <path d="M145.986 5.77959C151.227 5.77959 155.145 9.64898 155.096 14.7918C155.096 19.8857 151.178 23.8041 145.986 23.8041C140.794 23.8041 136.827 19.9347 136.827 14.7918C136.827 9.55102 140.745 5.77959 145.986 5.77959ZM145.986 8.42449C142.313 8.42449 139.619 11.0694 139.57 14.7429C139.521 18.4163 142.264 21.1592 145.937 21.1592C149.611 21.1592 152.353 18.4653 152.353 14.7918C152.353 11.1184 149.66 8.42449 145.986 8.42449Z" fill="#0F0F0F"/>
    <path d="M90.982 11.1673C90.1983 11.1673 89.4636 11.1673 88.7289 11.1673C88.631 11.1673 88.4351 10.9714 88.4351 10.8245C88.2391 9.6 87.4555 8.81633 86.28 8.52245C84.8106 8.13062 83.2922 8.13062 81.8718 8.81633C81.0881 9.15919 80.5983 9.94286 80.6473 10.8245C80.6473 11.7061 81.2351 12.4408 82.0677 12.5878C83.3412 12.9306 84.6636 13.1755 85.9861 13.4694C86.8187 13.6163 87.6514 13.8612 88.484 14.1551C92.3044 15.4776 92.1085 20.4245 89.7575 22.2367C88.631 23.1184 87.2595 23.6571 85.8391 23.8041C84.0759 24 82.3616 23.8531 80.7942 23.0694C78.933 22.1878 77.7085 20.3265 77.7575 18.2204H80.3534C80.3534 18.3184 80.4514 18.5143 80.4514 18.6612C80.5983 19.6408 81.284 20.4245 82.1657 20.7673C83.88 21.551 85.8391 21.551 87.4555 20.6694C88.2881 20.2776 88.8269 19.4449 88.7289 18.5143C88.7289 17.5837 88.0922 16.751 87.2106 16.5551C85.9371 16.1633 84.6146 15.9673 83.2922 15.6245C82.3616 15.4286 81.48 15.1837 80.6473 14.8408C77.2677 13.5184 77.3657 9.15919 79.5697 7.34694C81.0881 6.12245 82.8514 5.77959 84.7126 5.77959C86.28 5.77959 87.7493 6.12245 89.0718 7.10204C90.3453 8.13061 90.933 9.45306 90.982 11.1673Z" fill="#0F0F0F"/>
    <path d="M181.594 6.17143H183.504C183.651 7.00408 183.798 7.83673 183.945 8.76735C185.758 6.26939 188.207 5.87755 190.949 6.12245V8.62041C190.655 8.62041 190.313 8.62041 189.97 8.62041C189.137 8.66939 188.304 8.66939 187.521 8.86531C185.513 9.40408 184.288 11.2163 184.288 13.6653C184.239 16.6531 184.288 19.5918 184.288 22.5796V23.3633H181.594V6.17143Z" fill="#0F0F0F"/>
    <path d="M12.2449 6.36735C12.2449 3.93278 14.2185 1.95918 16.6531 1.95918H17.6327C20.0672 1.95918 22.0408 3.93278 22.0408 6.36735V7.34694C22.0408 9.7815 20.0672 11.7551 17.6327 11.7551H16.6531C14.2185 11.7551 12.2449 9.7815 12.2449 7.34694V6.36735Z" fill="#29B3FF"/>
    <path d="M0 6.36735C0 3.93278 1.9736 1.95918 4.40816 1.95918H5.38776C7.82232 1.95918 9.79592 3.93278 9.79592 6.36735V7.34694C9.79592 9.7815 7.82232 11.7551 5.38776 11.7551H4.40816C1.9736 11.7551 0 9.7815 0 7.34694V6.36735Z" fill="#103851"/>
    <path d="M0 18.6122C0 16.1777 1.9736 14.2041 4.40816 14.2041H5.38776C7.82232 14.2041 9.79592 16.1777 9.79592 18.6122V19.5918C9.79592 22.0264 7.82232 24 5.38776 24H4.40816C1.9736 24 0 22.0264 0 19.5918V18.6122Z" fill="#29B3FF"/>
    <path d="M12.2449 18.6122C12.2449 16.1777 14.2185 14.2041 16.6531 14.2041H17.6327C20.0672 14.2041 22.0408 16.1777 22.0408 18.6122V19.5918C22.0408 22.0264 20.0672 24 17.6327 24H16.6531C14.2185 24 12.2449 22.0264 12.2449 19.5918V18.6122Z" fill="#103851"/>
</svg>
